<svg height="100%" width="100%" id="svg" viewBox="0 0 1440 500" xmlns="http://www.w3.org/2000/svg" class="transition duration-300 ease-in-out delay-150"><defs><linearGradient id="gradient"><stop offset="5%" stop-color="#8ed1fc66"></stop><stop offset="95%" stop-color="#32ded466"></stop></linearGradient></defs><path d="M 0,500 C 0,500 0,125 0,125 C 67.08004122294741,128.4730333218825 134.16008244589483,131.94606664376502 207,136 C 279.83991755410517,140.05393335623498 358.439711439368,144.6887667468224 420,136 C 481.560288560632,127.31123325317759 526.0810717966333,105.29886636894538 581,105 C 635.9189282033667,104.70113363105462 701.2360013740985,126.11576777739609 786,122 C 870.7639986259015,117.88423222260391 974.9749227069733,88.23806252147028 1049,98 C 1123.0250772930267,107.76193747852972 1166.8643077980075,156.93198213672278 1227,168 C 1287.1356922019925,179.06801786327722 1363.5678461009961,152.0340089316386 1440,125 C 1440,125 1440,500 1440,500 Z" stroke="none" stroke-width="0" fill="url(#gradient)" class="transition-all duration-300 ease-in-out delay-150"></path><defs><linearGradient id="gradient"><stop offset="5%" stop-color="#8ed1fc88"></stop><stop offset="95%" stop-color="#32ded488"></stop></linearGradient></defs><path d="M 0,500 C 0,500 0,250 0,250 C 56.3723806252147,231.12744761250428 112.7447612504294,212.25489522500857 186,216 C 259.2552387495706,219.74510477499143 349.39333562349714,246.10786671246998 420,242 C 490.60666437650286,237.89213328753002 541.6818962555823,203.31363792511164 608,211 C 674.3181037444177,218.68636207488836 755.879079354174,268.63758158708345 833,266 C 910.120920645826,263.36241841291655 982.8017863277223,208.1360357265545 1043,208 C 1103.1982136722777,207.8639642734455 1150.9137753349364,262.81827550669874 1215,279 C 1279.0862246650636,295.18172449330126 1359.5431123325318,272.59086224665066 1440,250 C 1440,250 1440,500 1440,500 Z" stroke="none" stroke-width="0" fill="url(#gradient)" class="transition-all duration-300 ease-in-out delay-150"></path><defs><linearGradient id="gradient"><stop offset="5%" stop-color="#8ed1fcff"></stop><stop offset="95%" stop-color="#32ded4ff"></stop></linearGradient></defs><path d="M 0,500 C 0,500 0,375 0,375 C 56.67399519065613,350.4242528340776 113.34799038131226,325.84850566815527 183,329 C 252.65200961868774,332.15149433184473 335.2820336654071,363.03023016145653 405,375 C 474.7179663345929,386.96976983854347 531.5238749570595,380.03057368601856 590,387 C 648.4761250429405,393.96942631398144 708.6224665063552,414.8474750944693 796,416 C 883.3775334936448,417.1525249055307 997.9862590175198,398.5795259361044 1065,382 C 1132.0137409824802,365.4204740638956 1151.4324974235656,350.834421161113 1206,350 C 1260.5675025764344,349.165578838887 1350.2837512882172,362.0827894194435 1440,375 C 1440,375 1440,500 1440,500 Z" stroke="none" stroke-width="0" fill="url(#gradient)" class="transition-all duration-300 ease-in-out delay-150"></path></svg>